<svg width="1144" height="277" viewBox="0 0 1144 277" fill="none" xmlns="http://www.w3.org/2000/svg">
<g filter="url(#filter0_d_3_2924)">
<rect x="60" y="30" width="1024" height="157" rx="3" fill="url(#paint0_linear_3_2924)"/>
<rect x="149" y="73" width="70" height="70" rx="3" fill="#678C92"/>
<rect x="149" y="73" width="70" height="70" rx="3" fill="url(#paint1_linear_3_2924)" fill-opacity="0.2"/>
<path d="M184.481 106.33C185.003 106.322 185.523 106.249 186.027 106.112V105.402C186.024 105.103 186.196 104.831 186.467 104.704C186.719 104.591 186.961 104.456 187.191 104.301C187.446 104.137 187.771 104.13 188.034 104.281L188.671 104.637C189.453 103.896 190.015 102.954 190.295 101.915L189.191 101.299C189.304 100.731 189.304 100.147 189.191 99.5791L190.294 98.963C190.016 97.9229 189.455 96.9806 188.674 96.2394L188.034 96.5966C187.771 96.748 187.446 96.7404 187.191 96.577C186.961 96.4221 186.719 96.2871 186.466 96.1731C186.196 96.0471 186.024 95.7747 186.027 95.4763V94.7632C184.963 94.4736 183.841 94.4747 182.778 94.7661V95.4763C182.781 95.7747 182.609 96.0471 182.339 96.1731C182.086 96.2871 181.844 96.4221 181.614 96.577C181.359 96.7404 181.034 96.7483 180.771 96.5969L180.134 96.2415C179.353 96.9818 178.791 97.9234 178.511 98.963L179.614 99.5791C179.501 100.147 179.501 100.731 179.614 101.299L178.511 101.915C178.789 102.955 179.35 103.897 180.131 104.638L180.771 104.281C181.033 104.13 181.359 104.137 181.614 104.301C181.844 104.456 182.086 104.591 182.339 104.704C182.609 104.831 182.781 105.103 182.778 105.402V106.115C183.333 106.264 183.906 106.337 184.481 106.33ZM181.784 100.439C181.784 99.7445 182.06 99.0784 182.551 98.5871C183.042 98.0961 183.708 97.8202 184.403 97.8202C185.097 97.8202 185.763 98.0961 186.254 98.5871C186.745 99.0784 187.021 99.7445 187.021 100.439C187.021 101.133 186.745 101.799 186.254 102.291C185.763 102.782 185.097 103.058 184.403 103.058C183.708 103.058 183.042 102.782 182.551 102.291C182.06 101.799 181.784 101.133 181.784 100.439Z" fill="#F4F7FF"/>
<path d="M184.403 128.59C192.357 128.59 198.805 125.952 198.805 122.698C198.805 120.053 194.547 117.816 188.682 117.07C192.768 111.816 196.841 106.205 196.841 99.784C196.841 93.2759 191.272 88 184.403 88C177.533 88 171.964 93.2759 171.964 99.784C171.964 106.538 175.849 111.874 180.003 117.087C174.201 117.847 170 120.071 170 122.698C170 125.952 176.448 128.59 184.403 128.59ZM175.892 100.439C175.892 98.1819 176.789 96.0171 178.385 94.4211C179.981 92.825 182.146 91.9284 184.403 91.9284C186.66 91.9284 188.825 92.825 190.421 94.4211C192.017 96.0171 192.913 98.1819 192.913 100.439C192.913 102.696 192.017 104.861 190.421 106.457C188.825 108.053 186.66 108.95 184.403 108.95C182.146 108.95 179.981 108.053 178.385 106.457C176.789 104.861 175.892 102.696 175.892 100.439ZM181.705 119.213C182.628 120.367 183.541 121.524 184.403 122.698C185.215 121.544 186.103 120.38 187.02 119.201C189.894 119.617 191.947 120.694 191.947 121.961C191.947 123.588 188.569 124.907 184.403 124.907C180.237 124.907 176.859 123.588 176.859 121.961C176.859 120.706 178.873 119.637 181.705 119.213Z" fill="#F4F7FF"/>
<rect x="465" y="73" width="70" height="70" rx="3" fill="#678C92"/>
<rect x="465" y="73" width="70" height="70" rx="3" fill="url(#paint2_linear_3_2924)" fill-opacity="0.2"/>
<path d="M500.533 85.0003C500.79 85.0067 501.03 85.1043 501.26 85.2858L524.535 106.38C525.071 106.874 525.147 107.785 524.746 108.379C524.351 108.966 523.51 109.06 523.004 108.599L500.495 88.2083L477.985 108.599C477.479 109.06 476.662 108.962 476.263 108.379C475.867 107.801 475.909 106.84 476.454 106.38L485.182 98.4695V86.4065C485.182 85.6296 485.731 85.0004 486.408 85.0004H491.308C491.984 85.0004 492.533 85.6296 492.533 86.4065V91.812L499.73 85.2858C500.002 85.0798 500.276 84.994 500.533 85.0003ZM490.082 87.8126H487.632V96.2501L490.082 94.0307V87.8126ZM515.807 103.918L518.257 106.138V128.594C518.257 129.37 517.709 130 517.033 130H506.62C505.943 130 505.395 129.37 505.395 128.594V121.563C505.395 118.422 503.231 115.937 500.495 115.937C497.759 115.937 495.595 118.422 495.595 121.563V128.594C495.595 129.37 495.046 130 494.37 130H483.957C483.281 130 482.732 129.37 482.732 128.594V106.138L485.182 103.918V127.187H493.145V121.562C493.145 116.912 496.444 113.124 500.495 113.124C504.545 113.124 507.845 116.912 507.845 121.562V127.187H515.807L515.807 103.918Z" fill="#F4F7FF"/>
<rect x="781" y="73" width="70" height="70" rx="3" fill="#678C92"/>
<rect x="781" y="73" width="70" height="70" rx="3" fill="url(#paint3_linear_3_2924)" fill-opacity="0.2"/>
<path d="M845 98.8078C844.999 97.9327 844.744 97.0449 844.181 96.3133L839.665 90.4682C838.909 89.4967 837.758 89.0023 836.607 89C835.923 89 835.226 89.1778 834.61 89.5662L830.206 92.3372C829.743 92.6361 828.949 92.8408 828.182 92.8358C827.586 92.8385 827.01 92.7179 826.63 92.5278L822.318 90.4152C821.622 90.0766 820.847 89.9377 820.067 89.9363C818.947 89.9413 817.813 90.2201 816.902 90.8589L816.398 91.2158C815.996 91.0129 815.381 90.7036 814.685 90.3531C813.85 89.9391 812.868 89.7718 811.877 89.7686C810.981 89.7713 810.085 89.9107 809.299 90.247L806.362 91.5147C805.884 91.7244 805.123 91.861 804.368 91.8578C803.612 91.861 802.853 91.7244 802.375 91.5147L799.435 90.2466C798.899 90.0153 798.326 89.9162 797.758 89.9157C797.104 89.9162 796.454 90.0469 795.849 90.2946C795.245 90.5436 794.685 90.911 794.239 91.4155L788.886 97.4784C788.293 98.1479 787.999 98.9919 788 99.8226C787.999 100.813 788.418 101.807 789.226 102.503L794.22 106.812L791.85 109.311C791.197 110 790.872 110.894 790.872 111.778C790.871 112.718 791.24 113.667 791.971 114.366L792.452 114.828C792.905 115.262 793.449 115.538 794.018 115.686C793.733 116.217 793.576 116.8 793.578 117.383C793.576 118.324 793.945 119.273 794.675 119.972L794.674 119.972L795.156 120.436C795.842 121.093 796.732 121.421 797.608 121.42C798.078 121.421 798.55 121.325 798.993 121.138C799.148 121.776 799.469 122.383 799.975 122.868L800.457 123.331C801.142 123.989 802.031 124.317 802.908 124.316C803.594 124.317 804.283 124.112 804.877 123.715C805.05 124.28 805.347 124.815 805.8 125.25L806.282 125.714C806.967 126.372 807.856 126.699 808.732 126.699C809.666 126.699 810.608 126.329 811.304 125.594L813.398 123.383L816.242 126.045C816.923 126.684 817.796 127.002 818.659 127C819.606 127.002 820.562 126.618 821.26 125.863L821.714 125.37C822.106 124.945 822.362 124.441 822.51 123.915L823.612 124.944C824.294 125.58 825.166 125.896 826.028 125.896C826.976 125.896 827.935 125.512 828.633 124.756L829.084 124.265C829.606 123.702 829.899 123.004 829.99 122.292C830.281 122.367 830.575 122.418 830.873 122.418C831.821 122.418 832.777 122.035 833.476 121.279L833.929 120.788C834.562 120.102 834.877 119.223 834.875 118.355C834.875 118.086 834.837 117.818 834.778 117.553C835.565 117.448 836.328 117.093 836.908 116.463L837.362 115.97C837.995 115.284 838.308 114.405 838.308 113.537C838.31 112.581 837.929 111.618 837.178 110.915L836.329 110.122L843.992 101.552C844.681 100.779 844.999 99.7856 845 98.8078L845 98.8078ZM793.309 112.954C792.976 112.636 792.811 112.212 792.81 111.777C792.811 111.369 792.956 110.971 793.253 110.657L798.105 105.537C798.421 105.203 798.842 105.037 799.275 105.036C799.68 105.036 800.076 105.184 800.389 105.482L800.868 105.944C800.868 105.944 801.364 106.686 801.365 107.122C801.364 107.448 801.267 107.766 801.078 108.041C801.062 108.058 795.842 113.56 795.842 113.56C795.565 113.758 795.238 113.861 794.904 113.862C794.498 113.861 794.101 113.714 793.791 113.416L793.309 112.954ZM797.609 119.469C797.203 119.468 796.807 119.321 796.495 119.023L796.013 118.56L796.012 118.56C795.682 118.242 795.516 117.817 795.516 117.382C795.516 116.974 795.662 116.576 795.958 116.262C795.958 116.262 802.424 109.454 802.479 109.388C802.788 109.088 803.186 108.932 803.597 108.932C804.003 108.932 804.399 109.079 804.711 109.377L805.193 109.841C805.524 110.158 805.689 110.583 805.69 111.018C805.689 111.426 805.543 111.825 805.247 112.139L798.777 118.969C798.463 119.301 798.041 119.468 797.609 119.469ZM802.91 122.365C802.503 122.364 802.108 122.217 801.796 121.919L801.313 121.455C800.982 121.138 800.816 120.713 800.816 120.278C800.816 119.914 800.938 119.561 801.173 119.267L805.677 114.513C805.98 114.236 806.361 114.09 806.755 114.09C807.162 114.09 807.557 114.237 807.869 114.535L808.352 114.999C808.682 115.316 808.848 115.741 808.849 116.176C808.848 116.585 808.701 116.984 808.406 117.297L804.078 121.864C803.764 122.197 803.343 122.363 802.91 122.365ZM809.902 124.246C809.587 124.579 809.166 124.745 808.733 124.747C808.327 124.746 807.931 124.599 807.62 124.301L807.138 123.837C806.807 123.52 806.642 123.095 806.64 122.66C806.642 122.251 806.787 121.853 807.083 121.54L809.814 118.656C810.131 118.323 810.552 118.156 810.985 118.156C811.39 118.156 811.787 118.303 812.098 118.602L812.581 119.065C812.912 119.382 813.076 119.807 813.077 120.242C813.076 120.651 812.931 121.05 812.634 121.363L809.902 124.246ZM835.944 114.642L835.492 115.133C835.175 115.475 834.747 115.648 834.307 115.649C833.909 115.648 833.519 115.507 833.21 115.217L825.58 108.08L824.261 109.509L832.427 117.162C832.768 117.48 832.938 117.912 832.941 118.354C832.938 118.756 832.798 119.148 832.511 119.46L832.06 119.951C831.743 120.293 831.315 120.465 830.876 120.466C830.477 120.465 830.086 120.323 829.779 120.035L822.147 112.899L820.829 114.328L827.602 120.663C827.928 120.979 828.095 121.4 828.095 121.833C828.095 122.233 827.955 122.626 827.668 122.937L827.215 123.428C826.9 123.77 826.47 123.943 826.03 123.945C825.63 123.943 825.24 123.801 824.932 123.514L818.173 117.202H818.171L818.17 117.2L816.854 118.632L816.856 118.633L816.881 118.657L820.267 121.818C820.567 122.129 820.722 122.529 820.723 122.942C820.722 123.341 820.583 123.731 820.296 124.043L819.843 124.535C819.527 124.876 819.1 125.048 818.662 125.05C818.263 125.048 817.873 124.907 817.565 124.618L814.618 121.857C814.874 121.348 815.018 120.796 815.018 120.242C815.019 119.302 814.65 118.354 813.92 117.654L813.437 117.19C812.752 116.533 811.864 116.205 810.988 116.206C810.92 116.206 810.851 116.222 810.785 116.226C810.785 116.209 810.789 116.192 810.789 116.176C810.79 115.236 809.691 113.586 809.691 113.586L809.209 113.124C808.696 112.633 808.072 112.326 807.421 112.203C807.555 111.819 807.631 111.419 807.631 111.019C807.631 110.079 807.263 109.13 806.533 108.43L806.051 107.967C805.365 107.309 804.477 106.98 803.601 106.981C803.498 106.981 803.397 107.002 803.296 107.011C803.268 106.108 802.908 105.206 802.209 104.535V104.534L801.728 104.072C801.042 103.414 800.154 103.086 799.278 103.086C798.343 103.086 797.402 103.456 796.706 104.191L795.56 105.4L790.488 101.024C790.123 100.708 789.941 100.272 789.94 99.8239C789.941 99.4487 790.067 99.0809 790.337 98.7756L795.689 92.7127C795.901 92.4714 796.216 92.2534 796.584 92.1022C796.951 91.9509 797.369 91.8678 797.76 91.8682C798.1 91.8682 798.419 91.9304 798.674 92.0419L801.613 93.31C802.441 93.6632 803.403 93.808 804.369 93.8112C805.337 93.808 806.297 93.6632 807.125 93.31L810.063 92.0423C810.515 91.8426 811.199 91.7188 811.878 91.7215C812.629 91.717 813.382 91.8742 813.818 92.0995C814.096 92.2388 814.359 92.3713 814.603 92.4952L811.607 94.6251C810.645 95.3096 810.126 96.3985 810.127 97.4971C810.126 98.2241 810.354 98.9644 810.818 99.5927L810.816 99.5913L811.212 100.129C811.963 101.14 813.135 101.659 814.306 101.661C814.967 101.661 815.641 101.492 816.241 101.128L818.033 100.04C818.398 99.8139 818.95 99.6714 819.52 99.6741C820.191 99.67 820.866 99.8706 821.272 100.173L826.229 103.767C827.332 104.566 829.128 106.048 830.124 106.981L835.861 112.346C836.201 112.665 836.372 113.095 836.373 113.538C836.373 113.938 836.232 114.33 835.944 114.642L835.944 114.642ZM842.554 100.246L834.912 108.793L831.443 105.549C830.355 104.534 828.564 103.055 827.361 102.181L822.407 98.5874C821.567 97.9856 820.538 97.7251 819.521 97.7214C818.656 97.7242 817.784 97.9147 817.031 98.368L815.241 99.4561C814.966 99.6233 814.642 99.7083 814.306 99.7088C813.705 99.7106 813.104 99.4273 812.768 98.9653L812.373 98.4279L812.372 98.4265C812.162 98.1405 812.064 97.8192 812.063 97.4943C812.066 97.0031 812.29 96.526 812.724 96.2162L818.02 92.4522C818.479 92.1168 819.293 91.8814 820.067 91.8874C820.605 91.8846 821.118 91.9943 821.47 92.1698L825.782 94.2823C826.517 94.6392 827.347 94.7855 828.182 94.7873C829.254 94.7823 830.339 94.546 831.232 93.9913L835.637 91.2194C835.918 91.0416 836.255 90.9502 836.607 90.9502C837.202 90.9488 837.798 91.2217 838.135 91.6663L842.652 97.5113C842.912 97.8462 843.063 98.3183 843.063 98.8077C843.065 99.356 842.873 99.8943 842.554 100.246Z" fill="#F4F7FF"/>
<path d="M260.548 103.224L272.572 98.292L260.548 92.712V88.5L278.008 97.212V99.732L260.548 107.436V103.224ZM299.006 111H281.042V107.22L287.486 100.704C288.782 99.36 289.826 98.244 290.618 97.356C291.41 96.444 291.986 95.628 292.346 94.908C292.706 94.164 292.886 93.372 292.886 92.532C292.886 91.5 292.598 90.732 292.022 90.228C291.47 89.724 290.714 89.472 289.754 89.472C288.77 89.472 287.81 89.7 286.874 90.156C285.938 90.612 284.954 91.26 283.922 92.1L280.97 88.608C281.714 87.96 282.494 87.36 283.31 86.808C284.15 86.256 285.11 85.812 286.19 85.476C287.294 85.116 288.614 84.936 290.15 84.936C291.83 84.936 293.27 85.248 294.47 85.872C295.694 86.472 296.63 87.3 297.278 88.356C297.95 89.388 298.286 90.564 298.286 91.884C298.286 92.964 298.118 93.96 297.782 94.872C297.47 95.784 297.002 96.672 296.378 97.536C295.778 98.376 295.034 99.252 294.146 100.164C293.258 101.052 292.25 102.024 291.122 103.08L287.81 106.176V106.428H299.006V111ZM319.463 98.148C319.463 100.212 319.295 102.06 318.959 103.692C318.647 105.324 318.131 106.716 317.411 107.868C316.715 108.996 315.791 109.86 314.639 110.46C313.511 111.06 312.119 111.36 310.463 111.36C308.399 111.36 306.707 110.832 305.387 109.776C304.067 108.72 303.083 107.208 302.435 105.24C301.811 103.272 301.499 100.908 301.499 98.148C301.499 95.364 301.787 92.988 302.363 91.02C302.939 89.052 303.887 87.54 305.207 86.484C306.527 85.428 308.279 84.9 310.463 84.9C312.527 84.9 314.219 85.428 315.539 86.484C316.859 87.516 317.843 89.028 318.491 91.02C319.139 92.988 319.463 95.364 319.463 98.148ZM306.899 98.148C306.899 100.092 307.007 101.724 307.223 103.044C307.439 104.34 307.799 105.324 308.303 105.996C308.831 106.644 309.551 106.968 310.463 106.968C311.375 106.968 312.083 106.644 312.587 105.996C313.115 105.348 313.487 104.376 313.703 103.08C313.943 101.76 314.063 100.116 314.063 98.148C314.063 96.18 313.943 94.548 313.703 93.252C313.487 91.932 313.115 90.948 312.587 90.3C312.083 89.628 311.375 89.292 310.463 89.292C309.551 89.292 308.831 89.628 308.303 90.3C307.799 90.948 307.439 91.932 307.223 93.252C307.007 94.548 306.899 96.18 306.899 98.148ZM340.065 98.148C340.065 100.212 339.897 102.06 339.561 103.692C339.249 105.324 338.733 106.716 338.013 107.868C337.317 108.996 336.393 109.86 335.241 110.46C334.113 111.06 332.721 111.36 331.065 111.36C329.001 111.36 327.309 110.832 325.989 109.776C324.669 108.72 323.685 107.208 323.037 105.24C322.413 103.272 322.101 100.908 322.101 98.148C322.101 95.364 322.389 92.988 322.965 91.02C323.541 89.052 324.489 87.54 325.809 86.484C327.129 85.428 328.881 84.9 331.065 84.9C333.129 84.9 334.821 85.428 336.141 86.484C337.461 87.516 338.445 89.028 339.093 91.02C339.741 92.988 340.065 95.364 340.065 98.148ZM327.501 98.148C327.501 100.092 327.609 101.724 327.825 103.044C328.041 104.34 328.401 105.324 328.905 105.996C329.433 106.644 330.153 106.968 331.065 106.968C331.977 106.968 332.685 106.644 333.189 105.996C333.717 105.348 334.089 104.376 334.305 103.08C334.545 101.76 334.665 100.116 334.665 98.148C334.665 96.18 334.545 94.548 334.305 93.252C334.089 91.932 333.717 90.948 333.189 90.3C332.685 89.628 331.977 89.292 331.065 89.292C330.153 89.292 329.433 89.628 328.905 90.3C328.401 90.948 328.041 91.932 327.825 93.252C327.609 94.548 327.501 96.18 327.501 98.148Z" fill="#486A6F"/>
<path d="M576.548 103.224L588.572 98.292L576.548 92.712V88.5L594.008 97.212V99.732L576.548 107.436V103.224ZM599.598 111L609.246 89.868H596.574V85.296H615.006V88.716L605.286 111H599.598ZM635.463 98.148C635.463 100.212 635.295 102.06 634.959 103.692C634.647 105.324 634.131 106.716 633.411 107.868C632.715 108.996 631.791 109.86 630.639 110.46C629.511 111.06 628.119 111.36 626.463 111.36C624.399 111.36 622.707 110.832 621.387 109.776C620.067 108.72 619.083 107.208 618.435 105.24C617.811 103.272 617.499 100.908 617.499 98.148C617.499 95.364 617.787 92.988 618.363 91.02C618.939 89.052 619.887 87.54 621.207 86.484C622.527 85.428 624.279 84.9 626.463 84.9C628.527 84.9 630.219 85.428 631.539 86.484C632.859 87.516 633.843 89.028 634.491 91.02C635.139 92.988 635.463 95.364 635.463 98.148ZM622.899 98.148C622.899 100.092 623.007 101.724 623.223 103.044C623.439 104.34 623.799 105.324 624.303 105.996C624.831 106.644 625.551 106.968 626.463 106.968C627.375 106.968 628.083 106.644 628.587 105.996C629.115 105.348 629.487 104.376 629.703 103.08C629.943 101.76 630.063 100.116 630.063 98.148C630.063 96.18 629.943 94.548 629.703 93.252C629.487 91.932 629.115 90.948 628.587 90.3C628.083 89.628 627.375 89.292 626.463 89.292C625.551 89.292 624.831 89.628 624.303 90.3C623.799 90.948 623.439 91.932 623.223 93.252C623.007 94.548 622.899 96.18 622.899 98.148Z" fill="#486A6F"/>
<path d="M892.548 103.224L904.572 98.292L892.548 92.712V88.5L910.008 97.212V99.732L892.548 107.436V103.224ZM931.006 111H913.042V107.22L919.486 100.704C920.782 99.36 921.826 98.244 922.618 97.356C923.41 96.444 923.986 95.628 924.346 94.908C924.706 94.164 924.886 93.372 924.886 92.532C924.886 91.5 924.598 90.732 924.022 90.228C923.47 89.724 922.714 89.472 921.754 89.472C920.77 89.472 919.81 89.7 918.874 90.156C917.938 90.612 916.954 91.26 915.922 92.1L912.97 88.608C913.714 87.96 914.494 87.36 915.31 86.808C916.15 86.256 917.11 85.812 918.19 85.476C919.294 85.116 920.614 84.936 922.15 84.936C923.83 84.936 925.27 85.248 926.47 85.872C927.694 86.472 928.63 87.3 929.278 88.356C929.95 89.388 930.286 90.564 930.286 91.884C930.286 92.964 930.118 93.96 929.782 94.872C929.47 95.784 929.002 96.672 928.378 97.536C927.778 98.376 927.034 99.252 926.146 100.164C925.258 101.052 924.25 102.024 923.122 103.08L919.81 106.176V106.428H931.006V111ZM951.463 98.148C951.463 100.212 951.295 102.06 950.959 103.692C950.647 105.324 950.131 106.716 949.411 107.868C948.715 108.996 947.791 109.86 946.639 110.46C945.511 111.06 944.119 111.36 942.463 111.36C940.399 111.36 938.707 110.832 937.387 109.776C936.067 108.72 935.083 107.208 934.435 105.24C933.811 103.272 933.499 100.908 933.499 98.148C933.499 95.364 933.787 92.988 934.363 91.02C934.939 89.052 935.887 87.54 937.207 86.484C938.527 85.428 940.279 84.9 942.463 84.9C944.527 84.9 946.219 85.428 947.539 86.484C948.859 87.516 949.843 89.028 950.491 91.02C951.139 92.988 951.463 95.364 951.463 98.148ZM938.899 98.148C938.899 100.092 939.007 101.724 939.223 103.044C939.439 104.34 939.799 105.324 940.303 105.996C940.831 106.644 941.551 106.968 942.463 106.968C943.375 106.968 944.083 106.644 944.587 105.996C945.115 105.348 945.487 104.376 945.703 103.08C945.943 101.76 946.063 100.116 946.063 98.148C946.063 96.18 945.943 94.548 945.703 93.252C945.487 91.932 945.115 90.948 944.587 90.3C944.083 89.628 943.375 89.292 942.463 89.292C941.551 89.292 940.831 89.628 940.303 90.3C939.799 90.948 939.439 91.932 939.223 93.252C939.007 94.548 938.899 96.18 938.899 98.148Z" fill="#486A6F"/>
<path d="M270.568 139H267.496L262.52 130.36H262.456C262.467 130.627 262.477 130.899 262.488 131.176C262.499 131.443 262.509 131.715 262.52 131.992C262.541 132.259 262.557 132.531 262.568 132.808C262.579 133.075 262.589 133.347 262.6 133.624V139H260.44V127.576H263.496L268.456 136.136H268.504C268.493 135.869 268.483 135.608 268.472 135.352C268.461 135.085 268.451 134.824 268.44 134.568C268.44 134.301 268.435 134.04 268.424 133.784C268.413 133.517 268.403 133.251 268.392 132.984V127.576H270.568V139ZM282.88 130.264V139H281.056L280.736 137.88H280.608C280.426 138.179 280.192 138.424 279.904 138.616C279.626 138.797 279.317 138.931 278.976 139.016C278.634 139.112 278.282 139.16 277.92 139.16C277.301 139.16 276.757 139.048 276.288 138.824C275.818 138.6 275.456 138.253 275.2 137.784C274.944 137.315 274.816 136.707 274.816 135.96V130.264H277.2V135.368C277.2 135.987 277.312 136.456 277.536 136.776C277.76 137.096 278.117 137.256 278.608 137.256C279.098 137.256 279.477 137.144 279.744 136.92C280.021 136.696 280.213 136.371 280.32 135.944C280.437 135.517 280.496 134.995 280.496 134.376V130.264H282.88ZM297.235 130.104C298.227 130.104 298.974 130.36 299.475 130.872C299.987 131.373 300.243 132.184 300.243 133.304V139H297.859V133.896C297.859 133.267 297.753 132.797 297.539 132.488C297.326 132.168 296.995 132.008 296.547 132.008C295.918 132.008 295.47 132.232 295.203 132.68C294.937 133.128 294.803 133.773 294.803 134.616V139H292.419V133.896C292.419 133.48 292.371 133.133 292.275 132.856C292.179 132.579 292.035 132.371 291.843 132.232C291.651 132.083 291.406 132.008 291.107 132.008C290.67 132.008 290.323 132.12 290.067 132.344C289.811 132.568 289.63 132.893 289.523 133.32C289.417 133.747 289.363 134.269 289.363 134.888V139H286.979V130.264H288.803L289.123 131.384H289.251C289.433 131.085 289.657 130.845 289.923 130.664C290.19 130.472 290.483 130.333 290.803 130.248C291.134 130.152 291.465 130.104 291.795 130.104C292.435 130.104 292.979 130.211 293.427 130.424C293.875 130.627 294.217 130.947 294.451 131.384H294.659C294.926 130.936 295.294 130.611 295.763 130.408C296.243 130.205 296.734 130.104 297.235 130.104ZM306.682 129.672C306.682 130.003 306.671 130.328 306.65 130.648C306.629 130.968 306.607 131.219 306.586 131.4H306.682C306.917 131.037 307.231 130.733 307.626 130.488C308.021 130.232 308.533 130.104 309.162 130.104C310.143 130.104 310.938 130.488 311.546 131.256C312.154 132.013 312.458 133.133 312.458 134.616C312.458 135.608 312.314 136.445 312.026 137.128C311.749 137.8 311.359 138.307 310.858 138.648C310.357 138.989 309.77 139.16 309.098 139.16C308.458 139.16 307.951 139.048 307.578 138.824C307.215 138.589 306.917 138.328 306.682 138.04H306.522L306.122 139H304.298V126.84H306.682V129.672ZM308.394 132.008C307.978 132.008 307.647 132.093 307.402 132.264C307.157 132.435 306.975 132.696 306.858 133.048C306.751 133.389 306.693 133.821 306.682 134.344V134.6C306.682 135.443 306.805 136.093 307.05 136.552C307.306 137 307.765 137.224 308.426 137.224C308.917 137.224 309.306 137 309.594 136.552C309.882 136.093 310.026 135.437 310.026 134.584C310.026 133.731 309.877 133.091 309.578 132.664C309.29 132.227 308.895 132.008 308.394 132.008ZM319.623 130.104C320.434 130.104 321.127 130.259 321.703 130.568C322.29 130.877 322.743 131.325 323.063 131.912C323.383 132.499 323.543 133.219 323.543 134.072V135.224H317.911C317.932 135.896 318.13 136.424 318.503 136.808C318.887 137.192 319.415 137.384 320.087 137.384C320.652 137.384 321.164 137.331 321.623 137.224C322.082 137.107 322.556 136.931 323.047 136.696V138.536C322.62 138.749 322.167 138.904 321.687 139C321.218 139.107 320.647 139.16 319.975 139.16C319.1 139.16 318.327 139 317.655 138.68C316.983 138.349 316.455 137.853 316.071 137.192C315.687 136.531 315.495 135.699 315.495 134.696C315.495 133.672 315.666 132.824 316.007 132.152C316.359 131.469 316.844 130.957 317.463 130.616C318.082 130.275 318.802 130.104 319.623 130.104ZM319.639 131.8C319.18 131.8 318.796 131.949 318.487 132.248C318.188 132.547 318.012 133.011 317.959 133.64H321.303C321.303 133.288 321.239 132.973 321.111 132.696C320.994 132.419 320.812 132.2 320.567 132.04C320.322 131.88 320.012 131.8 319.639 131.8ZM331.956 130.104C332.073 130.104 332.212 130.109 332.372 130.12C332.532 130.131 332.66 130.147 332.756 130.168L332.58 132.408C332.505 132.387 332.393 132.371 332.244 132.36C332.105 132.339 331.983 132.328 331.876 132.328C331.567 132.328 331.268 132.371 330.98 132.456C330.692 132.531 330.431 132.653 330.196 132.824C329.972 132.995 329.791 133.224 329.652 133.512C329.524 133.789 329.46 134.136 329.46 134.552V139H327.076V130.264H328.884L329.236 131.736H329.348C329.519 131.437 329.732 131.165 329.988 130.92C330.244 130.675 330.537 130.477 330.868 130.328C331.209 130.179 331.572 130.104 331.956 130.104Z" fill="#678C92"/>
<path d="M586.568 139H583.496L578.52 130.36H578.456C578.467 130.627 578.477 130.899 578.488 131.176C578.499 131.443 578.509 131.715 578.52 131.992C578.541 132.259 578.557 132.531 578.568 132.808C578.579 133.075 578.589 133.347 578.6 133.624V139H576.44V127.576H579.496L584.456 136.136H584.504C584.493 135.869 584.483 135.608 584.472 135.352C584.461 135.085 584.451 134.824 584.44 134.568C584.44 134.301 584.435 134.04 584.424 133.784C584.413 133.517 584.403 133.251 584.392 132.984V127.576H586.568V139ZM598.88 130.264V139H597.056L596.736 137.88H596.608C596.426 138.179 596.192 138.424 595.904 138.616C595.626 138.797 595.317 138.931 594.976 139.016C594.634 139.112 594.282 139.16 593.92 139.16C593.301 139.16 592.757 139.048 592.288 138.824C591.818 138.6 591.456 138.253 591.2 137.784C590.944 137.315 590.816 136.707 590.816 135.96V130.264H593.2V135.368C593.2 135.987 593.312 136.456 593.536 136.776C593.76 137.096 594.117 137.256 594.608 137.256C595.098 137.256 595.477 137.144 595.744 136.92C596.021 136.696 596.213 136.371 596.32 135.944C596.437 135.517 596.496 134.995 596.496 134.376V130.264H598.88ZM613.235 130.104C614.227 130.104 614.974 130.36 615.475 130.872C615.987 131.373 616.243 132.184 616.243 133.304V139H613.859V133.896C613.859 133.267 613.753 132.797 613.539 132.488C613.326 132.168 612.995 132.008 612.547 132.008C611.918 132.008 611.47 132.232 611.203 132.68C610.937 133.128 610.803 133.773 610.803 134.616V139H608.419V133.896C608.419 133.48 608.371 133.133 608.275 132.856C608.179 132.579 608.035 132.371 607.843 132.232C607.651 132.083 607.406 132.008 607.107 132.008C606.67 132.008 606.323 132.12 606.067 132.344C605.811 132.568 605.63 132.893 605.523 133.32C605.417 133.747 605.363 134.269 605.363 134.888V139H602.979V130.264H604.803L605.123 131.384H605.251C605.433 131.085 605.657 130.845 605.923 130.664C606.19 130.472 606.483 130.333 606.803 130.248C607.134 130.152 607.465 130.104 607.795 130.104C608.435 130.104 608.979 130.211 609.427 130.424C609.875 130.627 610.217 130.947 610.451 131.384H610.659C610.926 130.936 611.294 130.611 611.763 130.408C612.243 130.205 612.734 130.104 613.235 130.104ZM622.682 129.672C622.682 130.003 622.671 130.328 622.65 130.648C622.629 130.968 622.607 131.219 622.586 131.4H622.682C622.917 131.037 623.231 130.733 623.626 130.488C624.021 130.232 624.533 130.104 625.162 130.104C626.143 130.104 626.938 130.488 627.546 131.256C628.154 132.013 628.458 133.133 628.458 134.616C628.458 135.608 628.314 136.445 628.026 137.128C627.749 137.8 627.359 138.307 626.858 138.648C626.357 138.989 625.77 139.16 625.098 139.16C624.458 139.16 623.951 139.048 623.578 138.824C623.215 138.589 622.917 138.328 622.682 138.04H622.522L622.122 139H620.298V126.84H622.682V129.672ZM624.394 132.008C623.978 132.008 623.647 132.093 623.402 132.264C623.157 132.435 622.975 132.696 622.858 133.048C622.751 133.389 622.693 133.821 622.682 134.344V134.6C622.682 135.443 622.805 136.093 623.05 136.552C623.306 137 623.765 137.224 624.426 137.224C624.917 137.224 625.306 137 625.594 136.552C625.882 136.093 626.026 135.437 626.026 134.584C626.026 133.731 625.877 133.091 625.578 132.664C625.29 132.227 624.895 132.008 624.394 132.008ZM635.623 130.104C636.434 130.104 637.127 130.259 637.703 130.568C638.29 130.877 638.743 131.325 639.063 131.912C639.383 132.499 639.543 133.219 639.543 134.072V135.224H633.911C633.932 135.896 634.13 136.424 634.503 136.808C634.887 137.192 635.415 137.384 636.087 137.384C636.652 137.384 637.164 137.331 637.623 137.224C638.082 137.107 638.556 136.931 639.047 136.696V138.536C638.62 138.749 638.167 138.904 637.687 139C637.218 139.107 636.647 139.16 635.975 139.16C635.1 139.16 634.327 139 633.655 138.68C632.983 138.349 632.455 137.853 632.071 137.192C631.687 136.531 631.495 135.699 631.495 134.696C631.495 133.672 631.666 132.824 632.007 132.152C632.359 131.469 632.844 130.957 633.463 130.616C634.082 130.275 634.802 130.104 635.623 130.104ZM635.639 131.8C635.18 131.8 634.796 131.949 634.487 132.248C634.188 132.547 634.012 133.011 633.959 133.64H637.303C637.303 133.288 637.239 132.973 637.111 132.696C636.994 132.419 636.812 132.2 636.567 132.04C636.322 131.88 636.012 131.8 635.639 131.8ZM647.956 130.104C648.073 130.104 648.212 130.109 648.372 130.12C648.532 130.131 648.66 130.147 648.756 130.168L648.58 132.408C648.505 132.387 648.393 132.371 648.244 132.36C648.105 132.339 647.983 132.328 647.876 132.328C647.567 132.328 647.268 132.371 646.98 132.456C646.692 132.531 646.431 132.653 646.196 132.824C645.972 132.995 645.791 133.224 645.652 133.512C645.524 133.789 645.46 134.136 645.46 134.552V139H643.076V130.264H644.884L645.236 131.736H645.348C645.519 131.437 645.732 131.165 645.988 130.92C646.244 130.675 646.537 130.477 646.868 130.328C647.209 130.179 647.572 130.104 647.956 130.104Z" fill="#678C92"/>
<path d="M902.568 139H899.496L894.52 130.36H894.456C894.467 130.627 894.477 130.899 894.488 131.176C894.499 131.443 894.509 131.715 894.52 131.992C894.541 132.259 894.557 132.531 894.568 132.808C894.579 133.075 894.589 133.347 894.6 133.624V139H892.44V127.576H895.496L900.456 136.136H900.504C900.493 135.869 900.483 135.608 900.472 135.352C900.461 135.085 900.451 134.824 900.44 134.568C900.44 134.301 900.435 134.04 900.424 133.784C900.413 133.517 900.403 133.251 900.392 132.984V127.576H902.568V139ZM914.88 130.264V139H913.056L912.736 137.88H912.608C912.426 138.179 912.192 138.424 911.904 138.616C911.626 138.797 911.317 138.931 910.976 139.016C910.634 139.112 910.282 139.16 909.92 139.16C909.301 139.16 908.757 139.048 908.288 138.824C907.818 138.6 907.456 138.253 907.2 137.784C906.944 137.315 906.816 136.707 906.816 135.96V130.264H909.2V135.368C909.2 135.987 909.312 136.456 909.536 136.776C909.76 137.096 910.117 137.256 910.608 137.256C911.098 137.256 911.477 137.144 911.744 136.92C912.021 136.696 912.213 136.371 912.32 135.944C912.437 135.517 912.496 134.995 912.496 134.376V130.264H914.88ZM929.235 130.104C930.227 130.104 930.974 130.36 931.475 130.872C931.987 131.373 932.243 132.184 932.243 133.304V139H929.859V133.896C929.859 133.267 929.753 132.797 929.539 132.488C929.326 132.168 928.995 132.008 928.547 132.008C927.918 132.008 927.47 132.232 927.203 132.68C926.937 133.128 926.803 133.773 926.803 134.616V139H924.419V133.896C924.419 133.48 924.371 133.133 924.275 132.856C924.179 132.579 924.035 132.371 923.843 132.232C923.651 132.083 923.406 132.008 923.107 132.008C922.67 132.008 922.323 132.12 922.067 132.344C921.811 132.568 921.63 132.893 921.523 133.32C921.417 133.747 921.363 134.269 921.363 134.888V139H918.979V130.264H920.803L921.123 131.384H921.251C921.433 131.085 921.657 130.845 921.923 130.664C922.19 130.472 922.483 130.333 922.803 130.248C923.134 130.152 923.465 130.104 923.795 130.104C924.435 130.104 924.979 130.211 925.427 130.424C925.875 130.627 926.217 130.947 926.451 131.384H926.659C926.926 130.936 927.294 130.611 927.763 130.408C928.243 130.205 928.734 130.104 929.235 130.104ZM938.682 129.672C938.682 130.003 938.671 130.328 938.65 130.648C938.629 130.968 938.607 131.219 938.586 131.4H938.682C938.917 131.037 939.231 130.733 939.626 130.488C940.021 130.232 940.533 130.104 941.162 130.104C942.143 130.104 942.938 130.488 943.546 131.256C944.154 132.013 944.458 133.133 944.458 134.616C944.458 135.608 944.314 136.445 944.026 137.128C943.749 137.8 943.359 138.307 942.858 138.648C942.357 138.989 941.77 139.16 941.098 139.16C940.458 139.16 939.951 139.048 939.578 138.824C939.215 138.589 938.917 138.328 938.682 138.04H938.522L938.122 139H936.298V126.84H938.682V129.672ZM940.394 132.008C939.978 132.008 939.647 132.093 939.402 132.264C939.157 132.435 938.975 132.696 938.858 133.048C938.751 133.389 938.693 133.821 938.682 134.344V134.6C938.682 135.443 938.805 136.093 939.05 136.552C939.306 137 939.765 137.224 940.426 137.224C940.917 137.224 941.306 137 941.594 136.552C941.882 136.093 942.026 135.437 942.026 134.584C942.026 133.731 941.877 133.091 941.578 132.664C941.29 132.227 940.895 132.008 940.394 132.008ZM951.623 130.104C952.434 130.104 953.127 130.259 953.703 130.568C954.29 130.877 954.743 131.325 955.063 131.912C955.383 132.499 955.543 133.219 955.543 134.072V135.224H949.911C949.932 135.896 950.13 136.424 950.503 136.808C950.887 137.192 951.415 137.384 952.087 137.384C952.652 137.384 953.164 137.331 953.623 137.224C954.082 137.107 954.556 136.931 955.047 136.696V138.536C954.62 138.749 954.167 138.904 953.687 139C953.218 139.107 952.647 139.16 951.975 139.16C951.1 139.16 950.327 139 949.655 138.68C948.983 138.349 948.455 137.853 948.071 137.192C947.687 136.531 947.495 135.699 947.495 134.696C947.495 133.672 947.666 132.824 948.007 132.152C948.359 131.469 948.844 130.957 949.463 130.616C950.082 130.275 950.802 130.104 951.623 130.104ZM951.639 131.8C951.18 131.8 950.796 131.949 950.487 132.248C950.188 132.547 950.012 133.011 949.959 133.64H953.303C953.303 133.288 953.239 132.973 953.111 132.696C952.994 132.419 952.812 132.2 952.567 132.04C952.322 131.88 952.012 131.8 951.639 131.8ZM963.956 130.104C964.073 130.104 964.212 130.109 964.372 130.12C964.532 130.131 964.66 130.147 964.756 130.168L964.58 132.408C964.505 132.387 964.393 132.371 964.244 132.36C964.105 132.339 963.983 132.328 963.876 132.328C963.567 132.328 963.268 132.371 962.98 132.456C962.692 132.531 962.431 132.653 962.196 132.824C961.972 132.995 961.791 133.224 961.652 133.512C961.524 133.789 961.46 134.136 961.46 134.552V139H959.076V130.264H960.884L961.236 131.736H961.348C961.519 131.437 961.732 131.165 961.988 130.92C962.244 130.675 962.537 130.477 962.868 130.328C963.209 130.179 963.572 130.104 963.956 130.104Z" fill="#678C92"/>
<rect x="414" y="75" width="1" height="68" fill="#486A6F"/>
<rect x="730" y="75" width="1" height="68" fill="#486A6F"/>
</g>
<defs>
<filter id="filter0_d_3_2924" x="0" y="0" width="1144" height="277" filterUnits="userSpaceOnUse" color-interpolation-filters="sRGB">
<feFlood flood-opacity="0" result="BackgroundImageFix"/>
<feColorMatrix in="SourceAlpha" type="matrix" values="0 0 0 0 0 0 0 0 0 0 0 0 0 0 0 0 0 0 127 0" result="hardAlpha"/>
<feOffset dy="30"/>
<feGaussianBlur stdDeviation="30"/>
<feComposite in2="hardAlpha" operator="out"/>
<feColorMatrix type="matrix" values="0 0 0 0 0.231373 0 0 0 0 0.509804 0 0 0 0 0.964706 0 0 0 0.25 0"/>
<feBlend mode="normal" in2="BackgroundImageFix" result="effect1_dropShadow_3_2924"/>
<feBlend mode="normal" in="SourceGraphic" in2="effect1_dropShadow_3_2924" result="shape"/>
</filter>
<linearGradient id="paint0_linear_3_2924" x1="60" y1="187" x2="1084" y2="30" gradientUnits="userSpaceOnUse">
<stop stop-color="#C6DBFF"/>
<stop offset="1" stop-color="#E1EBFA"/>
</linearGradient>
<linearGradient id="paint1_linear_3_2924" x1="149" y1="73" x2="219" y2="143" gradientUnits="userSpaceOnUse">
<stop stop-color="#678C92"/>
<stop offset="1" stop-color="#9ED5DE"/>
</linearGradient>
<linearGradient id="paint2_linear_3_2924" x1="465" y1="73" x2="535" y2="143" gradientUnits="userSpaceOnUse">
<stop stop-color="#678C92"/>
<stop offset="1" stop-color="#9ED5DE"/>
</linearGradient>
<linearGradient id="paint3_linear_3_2924" x1="781" y1="73" x2="851" y2="143" gradientUnits="userSpaceOnUse">
<stop stop-color="#678C92"/>
<stop offset="1" stop-color="#9ED5DE"/>
</linearGradient>
</defs>
</svg>
